# Blender 4.1.1
# www.blender.org
mtllib scanner2.mtl
o scanner
v 1.900000 0.100000 0.500000
v 1.200000 0.100000 1.712400
v 1.200000 -0.100000 1.712400
v 1.900000 -0.100000 0.500000
v 1.500000 0.100000 0.500000
v 1.000000 0.100000 1.366000
v 1.500000 -0.100000 0.500000
v 1.000000 -0.100000 1.366000
v -0.200000 0.100000 1.712400
v -0.200000 -0.100000 1.712400
v 0.000000 0.100000 1.366000
v 0.000000 -0.100000 1.366000
v -0.900000 0.100000 0.500000
v -0.900000 -0.100000 0.500000
v -0.500000 0.100000 0.500000
v -0.500000 -0.100000 0.500000
v -0.200000 0.100000 -0.712400
v -0.200000 -0.100000 -0.712400
v 0.000000 0.100000 -0.366000
v 0.000000 -0.100000 -0.366000
v 1.200000 0.100000 -0.712400
v 1.200000 -0.100000 -0.712400
v 1.000000 0.100000 -0.366000
v 1.000000 -0.100000 -0.366000
vn 0.8660 -0.0000 0.5000
vn -0.0000 1.0000 -0.0000
vn -0.8660 -0.0000 -0.5000
vn -0.0000 -1.0000 -0.0000
vn -0.0000 -0.0000 1.0000
vn -0.0000 -0.0000 -1.0000
vn -0.8660 -0.0000 0.5000
vn 0.8660 -0.0000 -0.5000
vt 0.769400 0.010000
vt 0.990000 0.010000
vt 0.990000 0.046400
vt 0.769400 0.046400
vt 0.446700 0.230600
vt 0.355700 0.073000
vt 0.392100 0.010000
vt 0.519500 0.230600
vt 0.706400 0.104800
vt 0.548800 0.104800
vt 0.548800 0.068400
vt 0.706400 0.068400
vt 0.010000 0.701100
vt 0.137400 0.480500
vt 0.173800 0.543600
vt 0.082800 0.701100
vt 0.548800 0.126700
vt 0.803500 0.126700
vt 0.803500 0.163100
vt 0.548800 0.163100
vt 0.173800 0.073000
vt 0.137400 0.010000
vt 0.730800 0.221400
vt 0.548900 0.221400
vt 0.548900 0.185000
vt 0.730800 0.185000
vt 0.392100 0.480500
vt 0.355700 0.543600
vt 0.548800 0.010000
vt 0.548800 0.046400
vt 0.082800 0.230600
vt 0.010000 0.230600
vt 0.864000 0.104700
vt 0.706400 0.104700
vt 0.706400 0.068300
vt 0.864000 0.068300
vt 0.519500 0.701100
vt 0.446700 0.701100
vt 0.173800 0.388200
vt 0.137400 0.451200
vt 0.548900 0.104700
vt 0.548900 0.068300
vt 0.392100 0.921700
vt 0.355700 0.858700
vt 0.548900 0.126700
vt 0.803600 0.126700
vt 0.803600 0.163000
vt 0.548900 0.163000
vt 0.355700 0.388200
vt 0.392100 0.451200
vt 0.730700 0.221500
vt 0.548800 0.221500
vt 0.548800 0.185100
vt 0.730700 0.185100
vt 0.137400 0.921700
vt 0.173800 0.858700
vt 0.863900 0.104800
vt 0.863900 0.068400
s 0
usemtl m_0
f 1/1/1 2/2/1 3/3/1
f 3/3/1 4/4/1 1/1/1
f 5/5/2 6/6/2 2/7/2
f 2/7/2 1/8/2 5/5/2
f 7/9/3 8/10/3 6/11/3
f 6/11/3 5/12/3 7/9/3
f 4/13/4 3/14/4 8/15/4
f 8/15/4 7/16/4 4/13/4
f 2/17/5 9/18/5 10/19/5
f 10/19/5 3/20/5 2/17/5
f 6/6/2 11/21/2 9/22/2
f 9/22/2 2/7/2 6/6/2
f 8/23/6 12/24/6 11/25/6
f 11/25/6 6/26/6 8/23/6
f 3/14/4 10/27/4 12/28/4
f 12/28/4 8/15/4 3/14/4
f 9/29/7 13/1/7 14/4/7
f 14/4/7 10/30/7 9/29/7
f 11/21/2 15/31/2 13/32/2
f 13/32/2 9/22/2 11/21/2
f 12/33/8 16/34/8 15/35/8
f 15/35/8 11/36/8 12/33/8
f 10/27/4 14/37/4 16/38/4
f 16/38/4 12/28/4 10/27/4
f 13/1/3 17/2/3 18/3/3
f 18/3/3 14/4/3 13/1/3
f 15/31/2 19/39/2 17/40/2
f 17/40/2 13/32/2 15/31/2
f 16/34/1 20/41/1 19/42/1
f 19/42/1 15/35/1 16/34/1
f 14/37/4 18/43/4 20/44/4
f 20/44/4 16/38/4 14/37/4
f 17/45/6 21/46/6 22/47/6
f 22/47/6 18/48/6 17/45/6
f 19/39/2 23/49/2 21/50/2
f 21/50/2 17/40/2 19/39/2
f 20/51/5 24/52/5 23/53/5
f 23/53/5 19/54/5 20/51/5
f 18/43/4 22/55/4 24/56/4
f 24/56/4 20/44/4 18/43/4
f 21/29/8 1/1/8 4/4/8
f 4/4/8 22/30/8 21/29/8
f 23/49/2 5/5/2 1/8/2
f 1/8/2 21/50/2 23/49/2
f 24/57/7 7/9/7 5/12/7
f 5/12/7 23/58/7 24/57/7
f 22/55/4 4/13/4 7/16/4
f 7/16/4 24/56/4 22/55/4
o screen
v -0.500000 0.004000 0.500000
v 0.000000 0.004000 1.366000
v 1.000000 0.004000 1.366000
v 0.000000 0.004000 -0.366000
v 1.000000 0.004000 -0.366000
v 1.500000 0.004000 0.500000
vn -0.0000 1.0000 -0.0000
vt 0.012200 0.500000
vt 0.256100 0.077500
vt 0.743900 0.077500
vt 0.256100 0.922500
vt 0.743900 0.922500
vt 0.987800 0.500000
s 0
usemtl m_1
f 25/59/9 26/60/9 27/61/9
f 28/62/9 25/59/9 27/61/9
f 29/63/9 28/62/9 27/61/9
f 30/64/9 29/63/9 27/61/9
o screen_back
v 1.000000 -0.010000 1.366000
v 0.000000 -0.010000 1.366000
v -0.500000 -0.010000 0.500000
v 0.000000 -0.010000 -0.366000
v 1.000000 -0.010000 -0.366000
v 1.500000 -0.010000 0.500000
vn -0.0000 -1.0000 -0.0000
vt 0.743900 0.077500
vt 0.256100 0.077500
vt 0.012200 0.500000
vt 0.256100 0.922500
vt 0.743900 0.922500
vt 0.987800 0.500000
s 0
usemtl m_1
f 31/65/10 32/66/10 33/67/10
f 31/65/10 33/67/10 34/68/10
f 31/65/10 34/68/10 35/69/10
f 31/65/10 35/69/10 36/70/10
